<svg width="199" height="203" viewBox="0 0 199 203" fill="none" xmlns="http://www.w3.org/2000/svg">
<path fill-rule="evenodd" clip-rule="evenodd" d="M165.113 1.67048C164.421 0.964161 163.473 0.566162 162.484 0.566162C159.223 0.566162 157.572 4.49468 159.855 6.82409L192.166 39.7876C194.474 42.1425 198.477 40.5082 198.477 37.2106C198.477 36.247 198.099 35.3218 197.424 34.6336L165.113 1.67048ZM198.477 3.39272C198.477 5.92458 195.404 7.17942 193.631 5.3713C191.878 3.58266 193.145 0.566162 195.65 0.566162C197.211 0.566162 198.477 1.83166 198.477 3.39272ZM198.477 73.1215C198.477 72.1579 198.099 71.2326 197.424 70.5445L129.913 1.67048C129.221 0.964162 128.273 0.566162 127.284 0.566162C124.023 0.566162 122.372 4.49468 124.656 6.82407L192.166 75.6985C194.474 78.0534 198.477 76.4191 198.477 73.1215ZM198.477 109.033C198.477 108.069 198.099 107.144 197.424 106.456L94.7132 1.67049C94.0208 0.964167 93.0734 0.566162 92.0844 0.566162C88.8225 0.566162 87.1722 4.49467 89.4555 6.82407L192.166 111.61C194.474 113.965 198.477 112.33 198.477 109.033ZM198.477 144.944C198.477 143.98 198.099 143.055 197.424 142.367L59.5132 1.67052C58.8209 0.964176 57.8734 0.566162 56.8843 0.566162C53.6224 0.566162 51.972 4.49481 54.2554 6.82428L192.166 147.521C194.474 149.876 198.477 148.241 198.477 144.944ZM198.477 180.855C198.477 179.891 198.099 178.966 197.424 178.278L24.3136 1.67056C23.6212 0.964192 22.6737 0.566162 21.6846 0.566162C18.4226 0.566162 16.7722 4.49494 19.0556 6.82449L192.166 183.432C194.474 185.787 198.477 184.152 198.477 180.855ZM177.268 202.566C180.53 202.566 182.18 198.638 179.897 196.308L6.78701 19.7008C4.47873 17.3458 0.476562 18.9802 0.476562 22.2777C0.476562 23.2413 0.854386 24.1665 1.52892 24.8547L174.639 201.462C175.331 202.168 176.279 202.566 177.268 202.566ZM142.068 202.566C145.33 202.566 146.98 198.638 144.697 196.308L6.78688 55.6117C4.47864 53.2569 0.476562 54.8912 0.476562 58.1887C0.476562 59.1523 0.854379 60.0775 1.5289 60.7656L139.439 201.462C140.131 202.168 141.079 202.566 142.068 202.566ZM106.868 202.566C110.13 202.566 111.78 198.638 109.497 196.308L6.78705 91.5228C4.47875 89.1678 0.476562 90.8022 0.476562 94.0998C0.476562 95.0634 0.854388 95.9886 1.52892 96.6768L104.239 201.462C104.931 202.168 105.879 202.566 106.868 202.566ZM71.6679 202.566C74.9297 202.566 76.58 198.638 74.2968 196.308L6.78704 127.434C4.47875 125.079 0.476562 126.713 0.476562 130.011C0.476562 130.974 0.854387 131.9 1.52892 132.588L69.039 201.462C69.7314 202.168 70.6788 202.566 71.6679 202.566ZM36.4677 202.566C39.7297 202.566 41.3801 198.637 39.0967 196.308L6.78704 163.345C4.47875 160.99 0.476562 162.624 0.476562 165.922C0.476562 166.886 0.854382 167.811 1.52891 168.499L33.8386 201.462C34.531 202.168 35.4785 202.566 36.4677 202.566ZM3.30302 202.566C5.80748 202.566 7.07464 199.55 5.32156 197.761C3.54936 195.953 0.476562 197.208 0.476562 199.74C0.476562 201.301 1.74201 202.566 3.30302 202.566Z" fill="#006257"/>
</svg>
